<mxfile host="app.diagrams.net" modified="2024-01-08T03:31:10.843Z" agent="Mozilla/5.0 (Windows NT 10.0; Win64; x64) AppleWebKit/537.36 (KHTML, like Gecko) Chrome/109.0.0.0 Safari/537.36 SLBrowser/9.0.0.10191 SLBChan/112" version="22.1.17" etag="Swp53RwCTUF4JEsJg5yn" type="github">
  <diagram name="第 1 页" id="yKq_4qopfeHc-yt6gtet">
    <mxGraphModel>
      <root>
        <mxCell id="0" />
        <mxCell id="1" parent="0" />
      </root>
    </mxGraphModel>
  </diagram>
</mxfile>
